<svg xmlns="http://www.w3.org/2000/svg" width="72" height="72" viewBox="0 0 72 72" fill="none"><metadata><rdf:RDF xmlns:rdf="http://www.w3.org/1999/02/22-rdf-syntax-ns#" xmlns:dc="http://purl.org/dc/elements/1.1/"><rdf:Description><dc:creator>RealFaviconGenerator</dc:creator><dc:source>https://realfavicongenerator.net</dc:source></rdf:Description></rdf:RDF></metadata><rect width="72" height="72" fill="white"></rect><path d="M8 24C8 19.5817 11.5817 16 16 16H16.5839V51.2H16C11.5817 51.2 8 47.6183 8 43.2V24Z" fill="#0056D0"></path><path d="M19.854 16H28.438V51.2H19.854V16Z" fill="#0056D0"></path><path d="M31.708 16H40.292V51.2L36 56L31.708 51.2V16Z" fill="#0056D0"></path><path d="M43.562 16H52.146V51.2H43.562V16Z" fill="#0056D0"></path><path d="M55.4161 16H56C60.4183 16 64 19.5817 64 24V43.2C64 47.6183 60.4183 51.2 56 51.2H55.4161V16Z" fill="#0056D0"></path></svg>