<svg width="156" height="32" viewBox="0 0 156 32" fill="none" xmlns="http://www.w3.org/2000/svg">
<g clip-path="url(#clip0_10241_1232)">
<path d="M0 6.74453C0 3.01963 3.01963 0 6.74453 0V28.16C3.01963 28.16 0 25.1404 0 21.4155V6.74453Z" fill="#0056D0"/>
<path d="M9.31387 0H16.0584V28.16H9.31387V0Z" fill="#0056D0"/>
<path d="M18.6277 0H25.3723V28.16L22 32L18.6277 28.16V0Z" fill="#0056D0"/>
<path d="M27.9416 0H34.6861V28.16H27.9416V0Z" fill="#0056D0"/>
<path d="M37.2555 0C40.9804 0 44 3.01963 44 6.74452V21.4155C44 25.1404 40.9804 28.16 37.2555 28.16V0Z" fill="#0056D0"/>
<path d="M52 23.6413V4.53812H59.0716C62.3048 4.53812 64.7885 5.3722 66.5225 7.04036C68.2565 8.69058 69.1235 11.0493 69.1235 14.1166C69.1235 17.1659 68.2655 19.5157 66.5496 21.1659C64.8517 22.8161 62.4132 23.6413 59.2342 23.6413H52ZM57.3105 19.417H59.0716C60.6792 19.417 61.8442 18.9865 62.5667 18.1256C63.3073 17.2646 63.6776 15.9193 63.6776 14.0897C63.6776 12.2601 63.3073 10.9148 62.5667 10.0538C61.8442 9.19283 60.6792 8.76233 59.0716 8.76233H57.3105V19.417Z" fill="#283237"/>
<path d="M71.7347 23.6413V9.11211H76.991V23.6413H71.7347ZM71.6535 7.65919V4H77.0723V7.65919H71.6535Z" fill="#283237"/>
<path d="M86.986 28C85.3604 28 84.0418 27.8296 83.0303 27.4888C82.0368 27.148 81.2691 26.6726 80.7273 26.0628C80.1854 25.4709 79.797 24.7892 79.5622 24.0179L84.9269 23.6413C85.0352 23.9821 85.2339 24.2422 85.5229 24.4215C85.83 24.6188 86.3177 24.7175 86.986 24.7175C87.7266 24.7175 88.2956 24.5112 88.6929 24.0987C89.0903 23.6861 89.289 22.9955 89.289 22.0269V20.9776C88.9458 21.5874 88.3949 22.0807 87.6363 22.4574C86.8776 22.8341 86.0287 23.0224 85.0894 23.0224C83.9153 23.0224 82.8767 22.7354 81.9736 22.1614C81.0704 21.5874 80.366 20.7713 79.8602 19.713C79.3545 18.6547 79.1016 17.3991 79.1016 15.9462C79.1016 14.5471 79.3545 13.3094 79.8602 12.2332C80.366 11.157 81.0704 10.3139 81.9736 9.70404C82.8767 9.09417 83.9153 8.78924 85.0894 8.78924C86.1912 8.78924 87.0854 9.02242 87.7717 9.48879C88.4581 9.95516 89 10.565 89.3974 11.3184V9.11211H94.5995V21.9193C94.5995 23.3184 94.2653 24.4664 93.597 25.3632C92.9467 26.2601 92.0436 26.9238 90.8876 27.3543C89.7496 27.7848 88.4491 28 86.986 28ZM86.9589 19.4978C87.6995 19.4978 88.2775 19.1839 88.6929 18.5561C89.1265 17.9283 89.3432 17.0404 89.3432 15.8924C89.3432 15.139 89.2439 14.4933 89.0452 13.9552C88.8645 13.417 88.5936 13.0045 88.2323 12.7175C87.8892 12.4305 87.4647 12.287 86.9589 12.287C86.1822 12.287 85.5771 12.6188 85.1436 13.2825C84.7101 13.9462 84.4933 14.8161 84.4933 15.8924C84.4933 16.9865 84.7191 17.8655 85.1707 18.5291C85.6223 19.1749 86.2183 19.4978 86.9589 19.4978Z" fill="#283237"/>
<path d="M97.5324 23.6413V9.11211H102.789V23.6413H97.5324ZM97.4511 7.65919V4H102.87V7.65919H97.4511Z" fill="#283237"/>
<path d="M105.712 23.6413V4.53812H113.949C116.369 4.53812 118.266 5.12108 119.639 6.28699C121.029 7.45291 121.725 9.04933 121.725 11.0762C121.725 12.4036 121.409 13.5605 120.776 14.5471C120.162 15.5157 119.268 16.2691 118.094 16.8072C116.938 17.3274 115.556 17.5874 113.949 17.5874H111.023V23.6413H105.712ZM111.023 13.3632H113.542C114.373 13.3632 115.042 13.1749 115.547 12.7982C116.053 12.4036 116.306 11.8296 116.306 11.0762C116.306 10.3229 116.053 9.74888 115.547 9.35426C115.06 8.95964 114.391 8.76233 113.542 8.76233H111.023V13.3632Z" fill="#283237"/>
<path d="M128.391 23.9641C126.856 23.9641 125.664 23.4888 124.815 22.5381C123.984 21.5695 123.568 20.2152 123.568 18.4753V9.11211H128.825V17.2915C128.825 18.2242 128.951 18.9058 129.204 19.3363C129.457 19.7489 129.854 19.9552 130.396 19.9552C131.028 19.9552 131.507 19.7309 131.832 19.2825C132.157 18.8161 132.32 18.0628 132.32 17.0224V9.11211H137.576V23.6413H132.862L132.672 19.0673L133.268 19.1211C133.123 20.7534 132.645 21.9731 131.832 22.7803C131.019 23.5695 129.872 23.9641 128.391 23.9641Z" fill="#283237"/>
<path d="M150.039 23.9641C149.01 23.9641 148.134 23.7578 147.411 23.3453C146.689 22.9148 146.12 22.3139 145.704 21.5426L145.623 23.6413H140.502V4.53812H145.758V11.2108C146.174 10.4753 146.743 9.89238 147.465 9.46188C148.188 9.01345 149.046 8.78924 150.039 8.78924C151.249 8.78924 152.297 9.10314 153.182 9.73094C154.085 10.3587 154.781 11.2466 155.268 12.3946C155.756 13.5247 156 14.852 156 16.3767C156 17.9013 155.756 19.2377 155.268 20.3857C154.781 21.5157 154.085 22.3946 153.182 23.0224C152.297 23.6502 151.249 23.9641 150.039 23.9641ZM148.251 20.2242C148.937 20.2242 149.497 19.8924 149.931 19.2287C150.382 18.565 150.608 17.6143 150.608 16.3767C150.608 15.139 150.392 14.1883 149.958 13.5247C149.543 12.861 148.974 12.5291 148.251 12.5291C147.727 12.5291 147.276 12.6816 146.896 12.9865C146.517 13.2735 146.228 13.704 146.029 14.278C145.849 14.852 145.758 15.5516 145.758 16.3767C145.758 17.1839 145.849 17.8744 146.029 18.4484C146.228 19.0224 146.517 19.4619 146.896 19.7668C147.276 20.0717 147.727 20.2242 148.251 20.2242Z" fill="#283237"/>
</g>
<defs>
<clipPath id="clip0_10241_1232">
<rect width="156" height="32" fill="white"/>
</clipPath>
</defs>
</svg>
